{
  "asset": {
    "generator": "glTF-Transform v4.4.2",
    "version": "2.0"
  },
  "accessors": [
    {
      "type": "VEC3",
      "componentType": 5126,
      "count": 2683,
      "max": [
        0.00462731346487999,
        0.00498990947380662,
        0.004683917388319969
      ],
      "min": [
        -0.004674393683671951,
        -0.004555935505777597,
        -0.004641679115593433
      ],
      "bufferView": 0,
      "byteOffset": 0
    },
    {
      "type": "VEC3",
      "componentType": 5126,
      "count": 2683,
      "bufferView": 0,
      "byteOffset": 12
    },
    {
      "type": "VEC2",
      "componentType": 5126,
      "count": 2683,
      "bufferView": 0,
      "byteOffset": 24
    },
    {
      "type": "SCALAR",
      "componentType": 5123,
      "count": 14496,
      "bufferView": 1,
      "byteOffset": 0
    },
    {
      "type": "SCALAR",
      "componentType": 5123,
      "count": 7776,
      "bufferView": 1,
      "byteOffset": 28992
    },
    {
      "type": "VEC3",
      "componentType": 5126,
      "count": 1449,
      "max": [
        0.005396209191530943,
        0.015465842559933662,
        0.005261633079499006
      ],
      "min": [
        -0.0050894650630652905,
        -0.0042797657661139965,
        -0.005224041175097227
      ],
      "bufferView": 2,
      "byteOffset": 0
    },
    {
      "type": "VEC3",
      "componentType": 5126,
      "count": 1449,
      "bufferView": 2,
      "byteOffset": 12
    },
    {
      "type": "VEC2",
      "componentType": 5126,
      "count": 1449,
      "bufferView": 2,
      "byteOffset": 24
    }
  ],
  "bufferViews": [
    {
      "buffer": 0,
      "byteOffset": 0,
      "byteLength": 85856,
      "byteStride": 32,
      "target": 34962
    },
    {
      "buffer": 0,
      "byteOffset": 85856,
      "byteLength": 44544,
      "target": 34963
    },
    {
      "buffer": 0,
      "byteOffset": 130400,
      "byteLength": 46368,
      "byteStride": 32,
      "target": 34962
    }
  ],
  "samplers": [
    {
      "magFilter": 9729,
      "minFilter": 9987,
      "wrapS": 10497,
      "wrapT": 10497
    }
  ],
  "textures": [
    {
      "sampler": 0,
      "extensions": {
        "EXT_texture_webp": {
          "source": 1
        }
      }
    },
    {
      "sampler": 0,
      "extensions": {
        "EXT_texture_webp": {
          "source": 0
        }
      }
    },
    {
      "sampler": 0,
      "extensions": {
        "EXT_texture_webp": {
          "source": 2
        }
      }
    },
    {
      "sampler": 0,
      "extensions": {
        "EXT_texture_webp": {
          "source": 4
        }
      }
    },
    {
      "sampler": 0,
      "extensions": {
        "EXT_texture_webp": {
          "source": 3
        }
      }
    },
    {
      "sampler": 0,
      "extensions": {
        "EXT_texture_webp": {
          "source": 5
        }
      }
    }
  ],
  "images": [
    {
      "name": "1_DefaultMaterial_NormalOpenGl",
      "mimeType": "image/webp",
      "uri": "normal_1.webp"
    },
    {
      "name": "1_DefaultMaterial_BaseColor.png-opacity.jpg",
      "mimeType": "image/webp",
      "uri": "baseColor_1.webp"
    },
    {
      "name": "1_DefaultMaterial_Roughness",
      "mimeType": "image/webp",
      "uri": "metallicRoughness_1.webp"
    },
    {
      "name": "Image_2",
      "mimeType": "image/webp",
      "uri": "normal_2.webp"
    },
    {
      "name": "Image_0",
      "mimeType": "image/webp",
      "uri": "baseColor_2.webp"
    },
    {
      "name": "Image_1",
      "mimeType": "image/webp",
      "uri": "metallicRoughness_2.webp"
    }
  ],
  "buffers": [
    {
      "uri": "model.bin",
      "byteLength": 176768
    }
  ],
  "materials": [
    {
      "name": "blueberry texture.002",
      "alphaMode": "BLEND",
      "doubleSided": true,
      "pbrMetallicRoughness": {
        "metallicFactor": 0,
        "baseColorTexture": {
          "index": 0
        },
        "metallicRoughnessTexture": {
          "index": 2
        }
      },
      "normalTexture": {
        "index": 1
      }
    },
    {
      "name": "Cherry",
      "doubleSided": true,
      "pbrMetallicRoughness": {
        "roughnessFactor": 0.5489518046379089,
        "metallicFactor": 0,
        "baseColorTexture": {
          "index": 3
        },
        "metallicRoughnessTexture": {
          "index": 5
        }
      },
      "normalTexture": {
        "index": 4,
        "scale": 0.4294549822807312
      }
    }
  ],
  "meshes": [
    {
      "name": "Cube.024",
      "primitives": [
        {
          "attributes": {
            "POSITION": 0,
            "NORMAL": 1,
            "TEXCOORD_0": 2
          },
          "mode": 4,
          "material": 0,
          "indices": 3
        }
      ]
    },
    {
      "name": "Object_1",
      "primitives": [
        {
          "attributes": {
            "POSITION": 5,
            "NORMAL": 6,
            "TEXCOORD_0": 7
          },
          "mode": 4,
          "material": 1,
          "indices": 4
        }
      ]
    }
  ],
  "nodes": [
    {
      "name": "blueberry.002",
      "mesh": 0
    },
    {
      "name": "Object_3",
      "mesh": 1
    }
  ],
  "scenes": [
    {
      "name": "Scene",
      "nodes": [
        0
      ]
    },
    {
      "name": "Scene.001",
      "nodes": []
    },
    {
      "name": "Scene.002",
      "nodes": [
        1
      ]
    }
  ],
  "scene": 2,
  "extensionsUsed": [
    "EXT_texture_webp"
  ],
  "extensionsRequired": [
    "EXT_texture_webp"
  ]
}